<svg width="118" height="25" viewBox="0 0 118 25" fill="none" xmlns="http://www.w3.org/2000/svg">
<g clip-path="url(#clip0_637_3005)">
<path d="M116.953 7.0988V10.7065H106.68V7.0988H116.953ZM109.032 24.4158V5.84738C109.032 4.59218 109.266 3.5512 109.736 2.72444C110.213 1.89767 110.863 1.2776 111.686 0.864214C112.51 0.450832 113.446 0.244141 114.493 0.244141C115.201 0.244141 115.848 0.300512 116.433 0.413253C117.026 0.525994 117.466 0.627459 117.755 0.717655L116.932 4.32536C116.751 4.26523 116.527 4.20886 116.26 4.15625C115.999 4.10364 115.732 4.07733 115.458 4.07733C114.779 4.07733 114.305 4.24268 114.038 4.57339C113.771 4.89658 113.637 5.3513 113.637 5.93757V24.4158H109.032Z" fill="white"/>
<path d="M105.792 7.0988V10.7065H95.5183V7.0988H105.792ZM97.87 24.4158V5.84738C97.87 4.59218 98.105 3.5512 98.5746 2.72444C99.0515 1.89767 99.7017 1.2776 100.525 0.864214C101.349 0.450832 102.284 0.244141 103.332 0.244141C104.04 0.244141 104.687 0.300512 105.272 0.413253C105.864 0.525994 106.305 0.627459 106.594 0.717655L105.77 4.32536C105.589 4.26523 105.366 4.20886 105.098 4.15625C104.838 4.10364 104.571 4.07733 104.296 4.07733C103.617 4.07733 103.144 4.24268 102.877 4.57339C102.61 4.89658 102.476 5.3513 102.476 5.93757V24.4158H97.87Z" fill="white"/>
<path d="M86.2571 24.7557C84.5738 24.7557 83.1176 24.3836 81.8897 23.6396C80.6685 22.8879 79.726 21.8432 79.0611 20.5053C78.3967 19.16 78.0642 17.6004 78.0642 15.8266C78.0642 14.0378 78.3967 12.4745 79.0611 11.1366C79.726 9.79122 80.6685 8.74647 81.8897 8.0024C83.1176 7.25078 84.5738 6.875 86.2571 6.875C87.9405 6.875 89.3922 7.25078 90.6133 8.0024C91.8418 8.74647 92.7883 9.79122 93.4527 11.1366C94.1176 12.4745 94.4496 14.0378 94.4496 15.8266C94.4496 17.6004 94.1176 19.16 93.4527 20.5053C92.7883 21.8432 91.8418 22.8879 90.6133 23.6396C89.3922 24.3836 87.9405 24.7557 86.2571 24.7557ZM86.2787 21.0352C87.0444 21.0352 87.6839 20.8098 88.1965 20.3588C88.7097 19.9003 89.0965 19.2765 89.3565 18.4873C89.6238 17.6981 89.7575 16.7999 89.7575 15.7928C89.7575 14.7856 89.6238 13.8875 89.3565 13.0983C89.0965 12.3091 88.7097 11.6852 88.1965 11.2268C87.6839 10.7683 87.0444 10.5391 86.2787 10.5391C85.5055 10.5391 84.8553 10.7683 84.328 11.2268C83.808 11.6852 83.4139 12.3091 83.1465 13.0983C82.8865 13.8875 82.7568 14.7856 82.7568 15.7928C82.7568 16.7999 82.8865 17.6981 83.1465 18.4873C83.4139 19.2765 83.808 19.9003 84.328 20.3588C84.8553 20.8098 85.5055 21.0352 86.2787 21.0352Z" fill="white"/>
<path d="M64.9197 14.4061V24.4174H60.3035V1.32812H64.7899V10.1557H64.9848C65.3603 9.13357 65.9675 8.33308 66.8052 7.75436C67.6435 7.16808 68.6947 6.87499 69.9589 6.87499C71.1149 6.87499 72.1226 7.13803 72.9823 7.66416C73.8495 8.18279 74.5212 8.93063 74.9981 9.90769C75.4824 10.8773 75.7208 12.0385 75.7135 13.3914V24.4174H71.0968V14.2482C71.1041 13.1809 70.8441 12.3504 70.3168 11.7567C69.7963 11.1629 69.0668 10.866 68.1277 10.866C67.499 10.866 66.9428 11.005 66.4586 11.2831C65.9817 11.5612 65.6061 11.9671 65.3314 12.5007C65.0641 13.0269 64.927 13.662 64.9197 14.4061Z" fill="white"/>
<path d="M57.5488 7.10002V10.7077H47.5244V7.10002H57.5488ZM49.8 2.95117H54.4166V19.0957C54.4166 19.5391 54.4818 19.8848 54.612 20.1329C54.7418 20.3734 54.9224 20.5425 55.1535 20.6402C55.392 20.7379 55.6667 20.7868 55.9771 20.7868C56.194 20.7868 56.4109 20.768 56.6273 20.7304C56.8442 20.6853 57.0102 20.6515 57.1257 20.6289L57.8519 24.2028C57.6208 24.278 57.2956 24.3644 56.8765 24.4621C56.4579 24.5674 55.9482 24.6312 55.3489 24.6538C54.236 24.6989 53.2606 24.5448 52.4229 24.1915C51.592 23.8383 50.9452 23.2896 50.483 22.5455C50.0203 21.8014 49.7931 20.8619 49.8 19.727V2.95117Z" fill="white"/>
<path d="M38.1107 24.7557C36.4274 24.7557 34.9716 24.3836 33.7434 23.6396C32.5224 22.8879 31.5797 21.8432 30.915 20.5053C30.2503 19.16 29.918 17.6004 29.918 15.8266C29.918 14.0378 30.2503 12.4745 30.915 11.1366C31.5797 9.79122 32.5224 8.74647 33.7434 8.0024C34.9716 7.25078 36.4274 6.875 38.1107 6.875C39.794 6.875 41.2462 7.25078 42.4671 8.0024C43.6953 8.74647 44.6418 9.79122 45.3064 11.1366C45.9711 12.4745 46.3034 14.0378 46.3034 15.8266C46.3034 17.6004 45.9711 19.16 45.3064 20.5053C44.6418 21.8432 43.6953 22.8879 42.4671 23.6396C41.2462 24.3836 39.794 24.7557 38.1107 24.7557ZM38.1324 21.0352C38.8982 21.0352 39.5376 20.8098 40.0505 20.3588C40.5635 19.9003 40.95 19.2765 41.2101 18.4873C41.4774 17.6981 41.611 16.7999 41.611 15.7928C41.611 14.7856 41.4774 13.8875 41.2101 13.0983C40.95 12.3091 40.5635 11.6852 40.0505 11.2268C39.5376 10.7683 38.8982 10.5391 38.1324 10.5391C37.3594 10.5391 36.7091 10.7683 36.1817 11.2268C35.6615 11.6852 35.2678 12.3091 35.0005 13.0983C34.7404 13.8875 34.6104 14.7856 34.6104 15.7928C34.6104 16.7999 34.7404 17.6981 35.0005 18.4873C35.2678 19.2765 35.6615 19.9003 36.1817 20.3588C36.7091 20.8098 37.3594 21.0352 38.1324 21.0352Z" fill="white"/>
<path d="M27.5013 1.32812V24.4174H22.8848V1.32812H27.5013Z" fill="white"/>
<path d="M20.2173 9.41089H15.4707C15.384 8.77207 15.207 8.20457 14.9397 7.70854C14.6724 7.20496 14.3292 6.77653 13.9102 6.42329C13.4912 6.07001 13.0071 5.79947 12.4581 5.61153C11.9162 5.42364 11.3274 5.32971 10.6916 5.32971C9.54292 5.32971 8.54232 5.62658 7.68978 6.22035C6.83729 6.80658 6.17625 7.66344 5.70665 8.79084C5.23704 9.91074 5.00222 11.2711 5.00222 12.8721C5.00222 14.518 5.23704 15.901 5.70665 17.0209C6.18344 18.1408 6.84811 18.9864 7.70065 19.5576C8.55314 20.1288 9.53929 20.4144 10.6591 20.4144C11.2877 20.4144 11.8692 20.328 12.4039 20.1551C12.9457 19.9823 13.4261 19.7305 13.8452 19.3998C14.2642 19.0615 14.611 18.6519 14.8855 18.1709C15.1673 17.6899 15.3623 17.1412 15.4707 16.5249L20.2173 16.5474C20.0945 17.6072 19.7874 18.6294 19.2961 19.614C18.8121 20.591 18.1583 21.4667 17.3347 22.2408C16.5183 23.0075 15.5429 23.6162 14.4087 24.0672C13.2817 24.5106 12.0065 24.7324 10.5833 24.7324C8.60372 24.7324 6.83367 24.2664 5.27313 23.3344C3.71986 22.4024 2.49167 21.0533 1.58859 19.287C0.692737 17.5207 0.244812 15.3824 0.244812 12.8721C0.244812 10.3542 0.699964 8.21212 1.61027 6.44584C2.52057 4.67955 3.75598 3.33418 5.31651 2.40971C6.877 1.47771 8.6326 1.01172 10.5833 1.01172C11.8692 1.01172 13.0613 1.19962 14.1595 1.57542C15.2648 1.95123 16.2438 2.4999 17.0962 3.22144C17.9488 3.93546 18.6423 4.81109 19.177 5.84829C19.7188 6.8855 20.0656 8.07305 20.2173 9.41089Z" fill="white"/>
</g>
<defs>
<clipPath id="clip0_637_3005">
<rect width="118" height="25" fill="white"/>
</clipPath>
</defs>
</svg>
