<svg version="1.2" xmlns="http://www.w3.org/2000/svg" viewBox="0 0 149 32" width="149" height="32">
	<style>
		tspan { white-space:pre } 
		.s0 { fill: #f13b3b;stroke: #ffffff } 
		.s1 { fill: none;stroke: #ffffff;stroke-linecap: round;stroke-linejoin: round;stroke-width: 1.2 } 
		.t2 { font-size: 15px;fill: #ffffffff;font-weight: 400;font-family: "MontserratSubrayada-Regular", "Montserrat Subrayada" } 
	</style>
	<path fill-rule="evenodd" class="s0" d="m16 31.5c-8.57 0-15.5-6.93-15.5-15.5 0-8.57 6.93-15.5 15.5-15.5 8.57 0 15.5 6.93 15.5 15.5 0 8.57-6.93 15.5-15.5 15.5z"/>
	<path class="s1" d="m22 12.67h-12c-0.37 0-0.67 0.3-0.67 0.66v5.34c0 0.36 0.3 0.66 0.67 0.66h12c0.37 0 0.67-0.3 0.67-0.66v-5.34c0-0.36-0.3-0.66-0.67-0.66z"/>
	<path class="s1" d="m18.67 14.67h1.33m-4 6.66v2m-2.67-1.33v0.67m5.34-0.67v0.67m-6.67-6h8v2.66h-8z"/>
	<text id="REPAIR" style="transform: matrix(1,0,0,1,38.493,21.201)" >
		<tspan x="0" y="0" class="t2">H</tspan><tspan  y="0" class="t2">V</tspan><tspan  y="0" class="t2">A</tspan><tspan  y="0" class="t2">C</tspan><tspan  y="0" class="t2"> </tspan><tspan  y="0" class="t2">R</tspan><tspan  y="0" class="t2">E</tspan><tspan  y="0" class="t2">P</tspan><tspan  y="0" class="t2">A</tspan><tspan  y="0" class="t2">I</tspan><tspan  y="0" class="t2">R</tspan><tspan  y="0" class="t2">
</tspan>
	</text>
</svg>