<svg xmlns="http://www.w3.org/2000/svg" id="logo" width="238" height="35" viewBox="0 0 238 35" fill="none">
<path d="M15.968 22.032H7.584L6.24 26H0.512L8.64 3.536H14.976L23.104 26H17.312L15.968 22.032ZM14.56 17.808L11.776 9.584L9.024 17.808H14.56ZM24.6497 14.736C24.6497 12.5173 25.1298 10.544 26.0898 8.816C27.0498 7.06667 28.3831 5.712 30.0898 4.752C31.8178 3.77067 33.7698 3.28 35.9458 3.28C38.6124 3.28 40.8951 3.984 42.7938 5.392C44.6924 6.8 45.9618 8.72 46.6018 11.152H40.5858C40.1378 10.2133 39.4978 9.49867 38.6658 9.008C37.8551 8.51733 36.9271 8.272 35.8818 8.272C34.1964 8.272 32.8311 8.85867 31.7858 10.032C30.7404 11.2053 30.2178 12.7733 30.2178 14.736C30.2178 16.6987 30.7404 18.2667 31.7858 19.44C32.8311 20.6133 34.1964 21.2 35.8818 21.2C36.9271 21.2 37.8551 20.9547 38.6658 20.464C39.4978 19.9733 40.1378 19.2587 40.5858 18.32H46.6018C45.9618 20.752 44.6924 22.672 42.7938 24.08C40.8951 25.4667 38.6124 26.16 35.9458 26.16C33.7698 26.16 31.8178 25.68 30.0898 24.72C28.3831 23.7387 27.0498 22.384 26.0898 20.656C25.1298 18.928 24.6497 16.9547 24.6497 14.736ZM68.19 26L63.518 17.52H62.206V26H56.734V3.536H65.918C67.6887 3.536 69.1927 3.84533 70.43 4.464C71.6887 5.08267 72.6273 5.936 73.246 7.024C73.8647 8.09067 74.174 9.28533 74.174 10.608C74.174 12.1013 73.7473 13.4347 72.894 14.608C72.062 15.7813 70.8247 16.6133 69.182 17.104L74.366 26H68.19ZM62.206 13.648H65.598C66.6007 13.648 67.3473 13.4027 67.838 12.912C68.35 12.4213 68.606 11.728 68.606 10.832C68.606 9.97867 68.35 9.30667 67.838 8.816C67.3473 8.32533 66.6007 8.08 65.598 8.08H62.206V13.648ZM94.441 16.784C94.441 17.296 94.409 17.8293 94.345 18.384H81.961C82.0463 19.4933 82.3983 20.3467 83.017 20.944C83.657 21.52 84.4357 21.808 85.353 21.808C86.7183 21.808 87.6677 21.232 88.201 20.08H94.025C93.7263 21.2533 93.1823 22.3093 92.393 23.248C91.625 24.1867 90.6543 24.9227 89.481 25.456C88.3077 25.9893 86.9957 26.256 85.545 26.256C83.7957 26.256 82.2383 25.8827 80.873 25.136C79.5077 24.3893 78.441 23.3227 77.673 21.936C76.905 20.5493 76.521 18.928 76.521 17.072C76.521 15.216 76.8943 13.5947 77.641 12.208C78.409 10.8213 79.4757 9.75467 80.841 9.008C82.2063 8.26133 83.7743 7.888 85.545 7.888C87.273 7.888 88.809 8.25067 90.153 8.976C91.497 9.70133 92.5423 10.736 93.289 12.08C94.057 13.424 94.441 14.992 94.441 16.784ZM88.841 15.344C88.841 14.4053 88.521 13.6587 87.881 13.104C87.241 12.5493 86.441 12.272 85.481 12.272C84.5637 12.272 83.785 12.5387 83.145 13.072C82.5263 13.6053 82.1423 14.3627 81.993 15.344H88.841ZM102.8 10.672C103.333 9.84 104.069 9.168 105.008 8.656C105.946 8.144 107.045 7.888 108.304 7.888C109.776 7.888 111.109 8.26133 112.304 9.008C113.498 9.75467 114.437 10.8213 115.12 12.208C115.824 13.5947 116.176 15.2053 116.176 17.04C116.176 18.8747 115.824 20.496 115.12 21.904C114.437 23.2907 113.498 24.368 112.304 25.136C111.109 25.8827 109.776 26.256 108.304 26.256C107.066 26.256 105.968 26 105.008 25.488C104.069 24.976 103.333 24.3147 102.8 23.504V34.512H97.3278V8.144H102.8V10.672ZM110.608 17.04C110.608 15.6747 110.224 14.608 109.456 13.84C108.709 13.0507 107.781 12.656 106.672 12.656C105.584 12.656 104.656 13.0507 103.888 13.84C103.141 14.6293 102.768 15.7067 102.768 17.072C102.768 18.4373 103.141 19.5147 103.888 20.304C104.656 21.0933 105.584 21.488 106.672 21.488C107.76 21.488 108.688 21.0933 109.456 20.304C110.224 19.4933 110.608 18.4053 110.608 17.04ZM117.959 17.04C117.959 15.2053 118.3 13.5947 118.983 12.208C119.687 10.8213 120.636 9.75467 121.831 9.008C123.025 8.26133 124.359 7.888 125.831 7.888C127.089 7.888 128.188 8.144 129.127 8.656C130.087 9.168 130.823 9.84 131.335 10.672V8.144H136.807V26H131.335V23.472C130.801 24.304 130.055 24.976 129.095 25.488C128.156 26 127.057 26.256 125.799 26.256C124.348 26.256 123.025 25.8827 121.831 25.136C120.636 24.368 119.687 23.2907 118.983 21.904C118.3 20.496 117.959 18.8747 117.959 17.04ZM131.335 17.072C131.335 15.7067 130.951 14.6293 130.183 13.84C129.436 13.0507 128.519 12.656 127.431 12.656C126.343 12.656 125.415 13.0507 124.647 13.84C123.9 14.608 123.527 15.6747 123.527 17.04C123.527 18.4053 123.9 19.4933 124.647 20.304C125.415 21.0933 126.343 21.488 127.431 21.488C128.519 21.488 129.436 21.0933 130.183 20.304C130.951 19.5147 131.335 18.4373 131.335 17.072ZM143.517 6.288C142.557 6.288 141.768 6.01067 141.149 5.456C140.552 4.88 140.253 4.176 140.253 3.344C140.253 2.49067 140.552 1.78667 141.149 1.232C141.768 0.655998 142.557 0.367998 143.517 0.367998C144.456 0.367998 145.224 0.655998 145.821 1.232C146.44 1.78667 146.749 2.49067 146.749 3.344C146.749 4.176 146.44 4.88 145.821 5.456C145.224 6.01067 144.456 6.288 143.517 6.288ZM146.237 8.144V26H140.765V8.144H146.237ZM155.675 11.12C156.315 10.1387 157.115 9.37067 158.075 8.816C159.035 8.24 160.101 7.952 161.275 7.952V13.744H159.771C158.405 13.744 157.381 14.0427 156.699 14.64C156.016 15.216 155.675 16.24 155.675 17.712V26H150.203V8.144H155.675V11.12ZM190.768 26H185.296L176.144 12.144V26H170.672V3.536H176.144L185.296 17.456V3.536H190.768V26ZM213.998 3.536L206.222 18.576V26H200.75V18.576L192.974 3.536H199.182L203.534 12.944L207.854 3.536H213.998ZM215.275 14.736C215.275 12.5173 215.755 10.544 216.715 8.816C217.675 7.06667 219.008 5.712 220.715 4.752C222.443 3.77067 224.395 3.28 226.571 3.28C229.237 3.28 231.52 3.984 233.419 5.392C235.317 6.8 236.587 8.72 237.227 11.152H231.211C230.763 10.2133 230.123 9.49867 229.291 9.008C228.48 8.51733 227.552 8.272 226.507 8.272C224.821 8.272 223.456 8.85867 222.411 10.032C221.365 11.2053 220.843 12.7733 220.843 14.736C220.843 16.6987 221.365 18.2667 222.411 19.44C223.456 20.6133 224.821 21.2 226.507 21.2C227.552 21.2 228.48 20.9547 229.291 20.464C230.123 19.9733 230.763 19.2587 231.211 18.32H237.227C236.587 20.752 235.317 22.672 233.419 24.08C231.52 25.4667 229.237 26.16 226.571 26.16C224.395 26.16 222.443 25.68 220.715 24.72C219.008 23.7387 217.675 22.384 216.715 20.656C215.755 18.928 215.275 16.9547 215.275 14.736Z" fill="#F0F0FB"/>
</svg>