<svg width="193" height="80" viewBox="0 0 193 80" fill="none" xmlns="http://www.w3.org/2000/svg">
<path d="M58 21.769C58.4415 10.1626 68.0816 5.80477 78.2795 5.10471C80.8083 4.90407 83.9072 5.0531 86.4775 5.05518L100.106 5.05966L110.287 5.05682C113.722 5.0604 116.968 4.95762 120.363 5.63411C129.07 7.36956 135.653 12.4881 135.865 21.9259C131.659 21.9643 127.452 21.9656 123.246 21.9301C123.059 21.118 122.695 20.3571 122.179 19.7015C120.657 17.7802 118 16.9284 115.65 16.6684C114.979 16.5179 111.885 16.5643 111.029 16.5652L101.825 16.5738L87.2479 16.5913C84.4379 16.5838 81.5249 16.5121 78.726 16.6166C77.4802 16.6632 75.0986 17.1938 74.0038 17.7929C72.2553 18.7493 71.3194 19.9036 70.7513 21.7838L58 21.769Z" fill="#070707"/>
<path d="M88.4835 35.7816C80.8122 36.8248 79.4907 26.4183 86.8336 25.5091C88.3117 25.3069 90.1293 25.6282 91.338 26.5315C93.5744 28.203 93.949 31.6414 92.2644 33.8299C91.3014 35.0809 90.0061 35.5858 88.4835 35.7816ZM87.1939 28.0537C85.5732 28.4564 85.0032 30.14 85.4453 31.604C85.6167 32.1916 86.0165 32.6859 86.5553 32.9763C87.1113 33.2713 87.6415 33.2778 88.2465 33.1816C90.9221 32.3727 90.66 27.7993 87.1939 28.0537Z" fill="#F00F87"/>
<path d="M58.0444 32.6972C58.7934 33.0196 62.0916 34.2033 62.2996 32.7768C61.9878 31.8575 58.2554 31.3813 58.0651 29.2747C57.8497 26.8907 59.3057 25.841 61.4287 25.5707C62.4645 25.4613 64.0517 25.5995 65.0853 25.8297C65.0932 26.6719 65.1085 27.5141 65.1312 28.3559C64.5105 28.1862 61.1352 27.2458 61.1851 28.5933C61.7366 29.6233 65.5153 29.6901 65.6504 32.1156C65.7973 34.751 64.2774 35.5814 61.9939 35.8037C60.3256 35.8691 59.609 35.7477 58.0354 35.3739L58.0444 32.6972Z" fill="#F00F87"/>
<path d="M71.5493 25.7201L72.2828 25.7033C73.036 25.6777 73.8412 25.6835 74.5985 25.6763C75.3688 26.7162 76.1253 27.7661 76.868 28.8259C77.1906 29.2852 77.808 30.218 78.1451 30.6015C78.1485 28.9613 78.1107 27.3387 78.1365 25.6946C79.1223 25.6867 80.1081 25.6916 81.0938 25.7091C81.0864 29.0184 81.0956 32.3275 81.1215 35.6364L80.0317 35.6195L78.1707 35.6266C77.0909 33.9346 75.7147 31.981 74.5511 30.3274C74.5844 32.0914 74.5938 33.8556 74.579 35.6198L71.5496 35.6226L71.5493 25.7201Z" fill="#F00F87"/>
<path d="M66.8452 35.6055L66.8656 25.7238L69.9771 25.7259C70.0487 28.9488 69.9969 32.3744 69.9959 35.6133L66.8452 35.6055Z" fill="#F00F87"/>
<path d="M114.169 35.8002C112.416 35.8203 110.869 35.5918 109.538 34.4434C106.855 32.1284 107.581 27.1141 111.015 25.894C111.827 25.6057 112.298 25.5142 113.137 25.4505C114.723 25.3693 116.027 25.594 117.323 26.5939C119.529 28.28 119.79 31.8594 118.079 33.98C117.071 35.2284 115.694 35.6334 114.169 35.8002ZM113.362 28.0606C110.338 28.3159 110.334 33.1287 113.73 33.174C114.026 33.1408 114.261 33.1152 114.549 33.0091C116.307 32.363 116.448 29.4796 114.961 28.4835C114.418 28.1202 114.008 28.0686 113.362 28.0606Z" fill="#F00F87"/>
<path d="M97.5647 35.6164L97.5663 25.6979C98.5138 25.6888 99.4614 25.6852 100.409 25.687C102.473 25.6898 104.599 25.6535 106.222 27.1844C107.133 28.0434 107.508 29.3328 107.516 30.5548C107.527 32.1239 107.127 33.1192 106.049 34.2278C104.323 35.6374 102.554 35.6221 100.422 35.6219L97.5647 35.6164ZM100.782 28.2069C100.786 29.7968 100.761 31.483 100.797 33.0645C101.889 33.0697 102.732 33.1664 103.6 32.391C104.454 31.2791 104.538 29.64 103.378 28.6854C102.685 28.115 101.641 28.2057 100.782 28.2069Z" fill="#F00F87"/>
<path d="M120.106 35.6286C120.142 32.3103 120.146 28.9919 120.121 25.6736L123.292 25.6664L123.294 32.9626C124.514 32.9718 125.734 32.972 126.954 32.9631C126.965 33.8407 126.954 34.7387 126.954 35.618L120.106 35.6286Z" fill="#F00F87"/>
<path d="M129.073 35.6286C129.109 32.3103 129.113 28.9919 129.088 25.6736L132.259 25.6664L132.261 32.9626C133.481 32.9718 134.701 32.972 135.921 32.9631C135.932 33.8407 135.921 34.7387 135.921 35.618L129.073 35.6286Z" fill="#F00F87"/>
<path d="M70.3531 51.4802C70.3119 54.3223 70.4614 57.491 72.1945 59.858C75.5741 64.4737 82.2315 63.7126 87.2124 63.7107L100.791 63.7199L109.522 63.7238C111.145 63.728 112.97 63.8064 114.564 63.6441C117.787 63.3161 121.963 61.2646 122.457 57.6909C122.644 56.3449 122.286 54.9799 121.462 53.8988C119.337 51.1468 114.793 51.1475 111.645 51.1617C110.245 51.1679 108.841 51.165 107.441 51.1653L89.4502 51.1703L84.0749 51.1766C82.4953 51.1787 80.9991 51.2187 79.4092 51.0153C75.5125 50.5171 71.4643 48.6631 68.4045 46.2073C66.7173 44.8533 65.3532 43.2565 64.0426 41.5663L106.688 41.5888L117.908 41.5724C119.432 41.5684 122.137 41.4816 123.514 41.6445C125.424 41.8703 128.441 43.4861 129.967 44.6704C132.988 47.0143 134.871 49.8724 135.364 53.7091C135.962 58.3574 134.5 63.3822 131.635 67.0631C127.788 72.0068 121.602 74.6762 115.5 75.4064C113.215 75.68 110.895 75.6027 108.586 75.6001L99.2328 75.604L86.1317 75.6357C83.0379 75.6342 79.399 75.8099 76.42 75.198C71.9485 74.2794 68.372 72.4834 64.7998 69.6879C59.2573 64.9643 57.306 58.5444 58.4287 51.4645C62.2722 51.378 66.4765 51.4699 70.3531 51.4802Z" fill="#070707"/>
</svg>
