<?xml version="1.0" encoding="iso-8859-1"?>

<!DOCTYPE svg PUBLIC "-//W3C//DTD SVG 1.1//EN" "http://www.w3.org/Graphics/SVG/1.1/DTD/svg11.dtd">
<svg fill="#fff" height="800px" width="800px" version="1.1" id="Capa_1" xmlns="http://www.w3.org/2000/svg" xmlns:xlink="http://www.w3.org/1999/xlink" 
	 viewBox="0 0 511.984 511.984" xml:space="preserve">
<g>
	<path d="M255.934,120.025h31.993c4.418,0,8-3.582,8-8s-3.582-8-8-8h-31.993c-4.418,0-8,3.582-8,8S251.516,120.025,255.934,120.025z
		"/>
	<path d="M287.927,327.974h-31.993c-4.418,0-8,3.582-8,8s3.582,8,8,8h31.993c4.418,0,8-3.582,8-8S292.346,327.974,287.927,327.974z"
		/>
	<path d="M120.099,327.974H88.106c-4.418,0-8,3.582-8,8s3.582,8,8,8h31.993c4.418,0,8-3.582,8-8S124.517,327.974,120.099,327.974z"
		/>
	<path d="M511.322,406.517l-19.742-80.894c-2.962-12.137-15.068-21.644-27.561-21.644h-32.396c0.58-3.015,0.501-6.228-0.282-9.437
		l-19.742-80.894c-2.962-12.137-15.068-21.645-27.561-21.645h-40.526c0.58-3.015,0.5-6.227-0.283-9.437l-19.742-80.894
		c-2.962-12.137-15.068-21.644-27.561-21.644h-79.981c-12.487,0-24.602,9.5-27.58,21.628l-19.865,80.903
		c-0.789,3.211-0.872,6.426-0.295,9.442h-40.108c-12.488,0-24.603,9.5-27.58,21.628l-19.865,80.904
		c-0.789,3.21-0.872,6.425-0.295,9.442H48.115c-12.488,0-24.603,9.5-27.58,21.628L0.671,406.511
		c-1.59,6.476-0.322,12.969,3.479,17.815c3.8,4.847,9.805,7.627,16.472,7.627h134.802c6.666,0,12.67-2.778,16.475-7.624
		c0.014-0.018,0.026-0.037,0.04-0.055c0.013,0.017,0.025,0.035,0.038,0.052c3.801,4.847,9.805,7.627,16.473,7.627h134.802
		c6.666,0,12.67-2.778,16.476-7.624c0.06-0.077,0.114-0.157,0.173-0.235c0.058,0.077,0.111,0.156,0.171,0.232
		c3.801,4.847,9.805,7.627,16.472,7.627h134.802c6.666,0,12.67-2.778,16.475-7.624C511.626,419.484,512.902,412.992,511.322,406.517
		z M396.054,217.442l19.742,80.894c0.414,1.697,0.222,3.166-0.54,4.138c-0.763,0.971-2.145,1.506-3.892,1.506h-27.327h-88.112
		h-19.363c-1.745,0-3.124-0.532-3.882-1.5c-0.758-0.967-0.947-2.433-0.531-4.128l19.865-80.903
		c1.214-4.942,6.953-9.443,12.042-9.443h19.196h60.785C389.121,208.005,394.849,212.503,396.054,217.442z M339.92,392.96
		l-16.434-67.336c-0.479-1.963-1.219-3.847-2.14-5.644h37.253c-0.92,1.792-1.661,3.67-2.141,5.628L339.92,392.96z M255.993,298.588
		c-0.084-1.339-0.282-2.692-0.612-4.045l-19.742-80.894c-0.479-1.964-1.22-3.848-2.141-5.645h45.119
		c-0.92,1.792-1.661,3.67-2.141,5.628l-19.865,80.904C256.278,295.892,256.078,297.247,255.993,298.588z M255.991,301.372
		c0.056,0.882,0.162,1.753,0.325,2.607h-0.653C255.828,303.125,255.934,302.254,255.991,301.372z M184.568,190.505
		c-0.758-0.967-0.947-2.433-0.531-4.127l19.865-80.904c1.214-4.941,6.953-9.442,12.042-9.442h79.981
		c5.084,0,10.812,4.498,12.017,9.437l19.742,80.894c0.414,1.697,0.222,3.167-0.54,4.138c-0.763,0.971-2.145,1.506-3.892,1.506
		h-19.196h-95.978H188.45C186.705,192.005,185.327,191.473,184.568,190.505z M96.722,302.48c-0.759-0.967-0.947-2.433-0.531-4.128
		l19.865-80.904c1.213-4.941,6.953-9.442,12.042-9.442h60.354h19.628c5.084,0,10.812,4.498,12.017,9.438l19.742,80.894
		c0.414,1.697,0.222,3.167-0.54,4.138c-0.763,0.971-2.145,1.506-3.892,1.506h-19.461h-87.847h-27.494
		C98.858,303.98,97.48,303.447,96.722,302.48z M171.959,392.42l-16.302-66.797c-0.479-1.963-1.219-3.847-2.14-5.644h36.988
		c-0.92,1.792-1.661,3.67-2.141,5.628L171.959,392.42z M159.315,414.447c-0.763,0.971-2.145,1.506-3.892,1.506H20.621
		c-1.745,0-3.123-0.532-3.882-1.5c-0.758-0.967-0.947-2.433-0.531-4.127l19.865-80.904c1.213-4.941,6.952-9.442,12.041-9.442h52.488
		h27.494c5.084,0,10.812,4.498,12.017,9.437l19.742,80.894C160.269,412.007,160.078,413.477,159.315,414.447z M327.144,414.447
		c-0.763,0.971-2.145,1.506-3.892,1.506H188.45c-1.745,0-3.124-0.532-3.882-1.5c-0.758-0.967-0.947-2.433-0.531-4.127l19.865-80.904
		c1.214-4.941,6.953-9.442,12.042-9.442h19.461h41.157h19.363c5.084,0,10.812,4.498,12.017,9.437l19.742,80.894
		C328.099,412.007,327.907,413.477,327.144,414.447z M495.238,414.447c-0.763,0.971-2.145,1.506-3.892,1.506H356.544
		c-1.745,0-3.124-0.532-3.882-1.5c-0.758-0.967-0.947-2.433-0.531-4.127l19.865-80.904c1.214-4.941,6.953-9.442,12.042-9.442h27.327
		h52.655c5.083,0,10.812,4.498,12.017,9.437l19.742,80.894C496.192,412.007,496,413.477,495.238,414.447z"/>
	<path d="M456.021,327.974h-31.993c-4.418,0-8,3.582-8,8s3.582,8,8,8h31.993c4.418,0,8-3.582,8-8S460.439,327.974,456.021,327.974z"
		/>
	<path d="M168.087,232h31.993c4.418,0,8-3.582,8-8s-3.582-8-8-8h-31.993c-4.418,0-8,3.582-8,8S163.669,232,168.087,232z"/>
	<path d="M344.047,232h31.992c4.418,0,8-3.582,8-8s-3.582-8-8-8h-31.992c-4.418,0-8,3.582-8,8S339.628,232,344.047,232z"/>
</g>
</svg>