<svg width="193" height="80" viewBox="0 0 193 80" fill="none" xmlns="http://www.w3.org/2000/svg">
<path d="M90.9709 58.7224C91.1638 45.9027 90.9758 32.857 91.0256 20L99.206 20.0114L99.2337 43.5873C99.2921 48.6466 99.301 53.7065 99.2605 58.7659L90.9709 58.7224Z" fill="black"/>
<path d="M129.207 56.1014C126.269 57.8765 123.288 58.8419 119.861 59.1022C115.163 59.4819 109.887 58.7199 106.232 55.516C99.9823 50.039 99.7472 38.8275 105.052 32.6304C107.813 29.405 111.314 27.9809 115.471 27.6807C127.366 27.1938 132.031 34.82 130.762 45.9765L109.714 45.9721C109.85 46.6939 110.086 47.3929 110.416 48.0485C111.763 50.782 114.335 51.94 117.236 52.2136C121.41 52.6072 125.345 51.6919 129.047 49.8091L129.104 49.8128C129.252 50.0284 129.206 55.362 129.207 56.1014ZM115.348 33.8354C111.612 34.4257 110.136 37.2332 109.695 40.7455L116.799 40.7357L122.314 40.7371C122.1 38.6011 121.769 36.4152 120.04 34.9389C118.789 33.8702 116.929 33.6127 115.348 33.8354Z" fill="black"/>
<path d="M88.4553 55.153C84.7919 57.241 81.7467 58.7375 77.3983 59.0891C72.7051 59.4632 67.4125 58.7952 63.6881 55.6632C57.3161 50.3048 57.0601 38.9318 62.2853 32.7189C65.0239 29.4628 68.4464 28.0607 72.6309 27.7595C77.6061 27.3437 83.0039 29.047 85.8272 33.396C88.3629 37.3021 88.5484 41.5064 88.2992 45.9784C81.218 45.967 74.0068 46.0466 66.9395 45.9386C68.0016 50.3797 70.4813 51.8574 74.9197 52.2426C79.7086 52.6584 83.8003 51.469 87.944 49.1844C88.1999 49.062 88.1853 49.0133 88.4078 49.0586C88.4671 49.3178 88.4443 50.5905 88.4452 50.9434L88.4553 55.153ZM73.1698 33.7628C69.1575 34.2324 67.5619 37.0122 67.0365 40.7572L73.9474 40.7557C75.9115 40.7533 77.9661 40.7828 79.9225 40.7451C79.8391 36.8262 77.907 33.5449 73.6358 33.726C73.48 33.7319 73.3245 33.7441 73.1698 33.7628Z" fill="black"/>
<path d="M36.3136 34.7254L36.3128 28.2029L61.5063 28.1954C61.065 28.8398 60.6335 29.5406 60.2214 30.2059C57.4819 34.6283 54.624 38.9513 51.7634 43.2934C49.8969 46.1834 47.9727 49.0356 45.9922 51.8484L59.0393 51.8156L59.041 55.1544L59.0379 58.76L46.8573 58.7667C45.3368 58.7687 41.748 58.8825 40.4199 58.6977C39.6181 58.5938 38.8506 58.3076 38.1763 57.8606C37.0882 57.121 36.3404 55.9756 36.0994 54.68C35.5325 51.7794 37.5145 50.1562 38.897 47.8761C39.1187 47.5106 39.387 47.1479 39.627 46.7915L47.8308 34.6862C43.992 34.7285 40.1527 34.7416 36.3136 34.7254Z" fill="black"/>
<path d="M148.621 28.2704L155.62 28.2347L157.962 28.2144C155.784 31.8594 153.576 35.4863 151.339 39.095C150.522 40.4253 149.211 42.3736 148.514 43.6638C151.513 48.7009 155.161 53.6504 158 58.7525C154.961 58.6649 151.554 58.7355 148.472 58.7228C146.711 56.203 145.297 53.2022 143.568 50.6481C141.957 53.088 140.288 56.2347 138.714 58.7767C136.595 58.7298 134.399 58.7607 132.274 58.7665L129.381 58.7823C131.365 55.312 133.641 51.9219 135.722 48.5035C136.707 46.8849 137.74 45.2256 138.792 43.6524C136.813 40.0805 134.426 36.5661 132.401 32.9973C131.489 31.389 130.509 29.9559 129.667 28.2425C132.672 28.2007 135.835 28.2611 138.863 28.2572C140.347 30.8572 142.2 33.8161 143.753 36.3942C145.333 33.921 147.052 30.8526 148.621 28.2704Z" fill="black"/>
</svg>
