<svg id="logo" width="183" height="52" viewBox="0 0 183 52" fill="none" xmlns="http://www.w3.org/2000/svg">
<path d="M16.2122 0.0207345C16.289 0.0120401 16.3662 0.00565798 16.4433 0.00159983C17.6641 -0.0564976 19.6446 1.48202 20.4937 2.292C20.9804 2.7563 21.4196 3.30799 21.8545 3.81447C22.2774 4.30708 22.7545 5.14002 23.2182 5.54884C23.445 5.44305 23.5922 5.23205 23.7822 5.05539C24.9473 3.97178 25.2545 2.62557 25.821 1.23579C26.5665 3.1141 25.896 5.42201 24.8302 7.0744C24.5685 7.4801 23.5879 8.40619 23.565 8.82912L23.613 8.86485C24.1043 8.81536 26.3678 7.73481 26.9573 7.49594C26.1934 9.08036 24.7992 10.7919 23.9855 12.3031C24.5432 16.992 29.3036 16.5807 29.3663 22.622C28.8064 22.0451 28.4174 21.0222 27.5597 20.6131C27.5954 21.3394 27.5967 21.8411 27.5511 22.5737C27.5246 23.0017 27.447 23.8995 27.494 24.2924C27.6732 24.3357 27.8508 24.3846 28.0266 24.439C31.1821 25.4159 31.8537 27.8043 31.8767 30.7483C31.9141 35.8414 30.5507 40.8546 28.7985 45.6193C28.3283 46.8976 27.4265 48.0623 26.9958 49.3761L26.9809 49.4228C27.4785 49.9702 28.4938 50.5548 28.6724 52C27.5414 50.3236 26.589 49.9189 25.6351 49.572C24.7436 49.1674 24.1423 48.9361 23.5531 48.1846C22.5946 46.7394 22.9901 44.7166 23.6187 42.6969C23.8729 41.8802 24.2692 41.1087 24.4833 40.2886L24.5011 40.2186C22.7977 40.0848 20.4605 40.1044 19.4458 38.5076C21.1686 38.887 22.7833 39.2061 24.4913 38.5621C27.0972 37.5796 26.6759 35.2752 26.862 33.0613C26.9242 32.3209 27.1173 31.6574 27.4177 30.9686C27.3892 31.5162 27.4925 32.8093 27.6283 33.3694C27.9357 34.6368 28.2376 35.457 28.005 36.8289C27.7738 38.0669 26.859 39.0025 26.2831 40.0782C25.7452 41.0829 25.3325 42.2156 24.9669 43.2902C24.5172 44.6124 24.0516 46.0787 24.3095 47.4816C24.4473 48.2314 25.0358 48.4989 25.6351 48.8685C26.1245 47.8758 26.7442 46.9496 27.2098 45.9411C28.0715 44.0745 28.5964 41.9958 29.1054 40.0137C29.837 37.1638 31.3805 29.9714 29.7877 27.4449C28.8071 25.8895 26.4622 25.5421 24.7788 25.1377C24.2448 27.0537 24.4713 28.7356 25.4808 30.4859C24.6492 30.1008 23.543 28.9959 22.7994 28.3885C22.9232 30.2239 23.3566 31.1746 24.3432 32.6857C22.6134 31.6973 20.5754 29.6729 19.7753 27.8843C19.5452 27.3585 19.3232 26.8294 19.1094 26.2971C18.969 25.9445 18.83 25.5168 18.6278 25.1979C17.3941 25.51 17.247 26.0598 16.3488 26.4444C16.7113 25.9039 17.1839 25.4079 17.7572 25.0793C18.0046 24.9593 18.2534 24.8419 18.5034 24.7271C18.3308 23.6239 18.0072 22.8111 17.978 21.6279C17.247 21.8079 16.3876 22.1997 15.6154 22.1551C14.8654 22.1116 14.0133 21.8032 13.2797 21.5968C13.237 22.77 13.1132 23.6328 12.793 24.7624C13.9188 25.0374 14.5202 25.4213 15.0617 26.4553C14.6982 26.2541 14.3207 25.9546 13.9563 25.7391C13.5638 25.5069 13.1503 25.3159 12.7383 25.119C12.3606 25.9954 11.9293 26.9865 11.5323 27.8467C10.8962 29.2245 9.03288 31.7248 7.61056 32.3382C7.75533 31.768 8.31666 29.3585 8.2063 28.8357L8.13963 28.7955C7.81807 28.8365 7.47948 29.3315 7.22352 29.5907C6.44099 30.3831 5.6025 30.9239 4.68758 31.5392C5.87549 29.9657 6.5329 28.373 6.40908 26.405C6.39289 26.1461 6.4523 25.8031 6.3617 25.5603C6.32694 25.5415 6.29027 25.5184 6.25479 25.5195C5.38166 25.5433 4.21625 26.0773 3.52444 26.4474C2.63369 26.924 1.98688 27.6805 1.77937 28.6112C0.919571 32.4684 3.67909 43.4573 5.5925 46.5858C5.94537 46.4596 6.28491 46.2967 6.63897 46.1706C7.00994 46.0384 7.41377 45.9473 7.77295 45.7908C7.86319 45.7515 7.96331 45.7137 8.00677 45.6212C8.39726 44.7906 6.98006 40.2826 6.49944 39.3848C6.31265 39.0359 6.00966 38.7487 5.75477 38.4461C5.42845 38.0587 5.21415 37.5835 5.05224 37.1118C4.60127 35.7978 4.5577 33.9306 5.2107 32.6727C5.66238 32.8492 6.1199 33.1202 6.54004 33.3628C6.20562 34.0679 6.07538 34.6275 6.1786 35.4031C6.71124 39.4065 10.6564 39.0754 13.7222 38.733C13.689 38.7663 13.6551 38.7989 13.6203 38.8305C13.3576 39.0739 12.9783 39.2743 12.6665 39.452C11.1559 40.3129 10.0285 40.2512 8.38559 40.2169C8.74715 41.8607 10.3492 45.2772 9.12336 46.8333C8.58477 47.5172 7.36197 46.5858 4.32613 47.9534C2.8975 48.6471 2.42129 49.283 2.12366 49.7455C2.71892 48.0112 3.64575 47.5234 4.05518 47.1871C3.39062 45.3731 2.69405 43.5878 2.12426 41.742C1.2028 38.7442 0.564913 35.671 0.218827 32.5606C0.0260811 30.9115 -0.249883 29.2215 0.454075 27.6525C0.762778 26.9643 1.24589 26.458 1.6015 25.8068L1.63889 25.7373L1.62972 25.7002C1.459 24.9765 1.55793 24.3677 1.52864 23.6446C1.46483 22.071 1.98247 20.5026 2.98453 19.2622C4.51626 17.3662 6.54123 15.242 6.01859 12.6273C5.94085 12.2425 5.58286 11.754 5.40214 11.3917C4.78675 10.1579 3.79969 8.87063 3.33765 7.57965L3.31788 7.52357C4.14482 7.8562 4.91104 8.27474 5.71203 8.65789C6.03371 8.81178 6.29039 9.16626 6.59135 9.17586C6.74981 9.09885 6.81934 8.97526 6.92744 8.83375C6.71505 8.50216 6.31408 8.11981 6.04966 7.8066C4.34483 5.78747 3.18133 3.1853 4.54841 0.674421C4.61877 1.05734 4.62842 1.42873 4.71842 1.8356C5.10582 3.58681 5.93716 4.61859 7.26424 5.78077C7.99284 3.90302 10.1852 1.6497 11.9323 0.591651C12.5464 0.219746 13.9078 0.788997 14.5274 1.01267C15.1958 0.621873 15.4149 0.267207 16.2122 0.0207345ZM18.2147 19.452C19.2006 18.438 20.8325 15.823 21.0979 14.4834C20.1194 14.2791 18.8289 14.0231 17.8959 13.688C15.5515 12.846 13.4687 11.1339 12.0938 9.11319C11.8844 8.8053 11.431 7.81273 11.2104 7.65862L11.0552 7.62856C10.8306 7.91343 10.666 8.28341 10.4983 8.60367C9.44861 10.6083 9.11907 12.4601 9.80863 14.6302C10.6526 17.2866 12.4259 20.986 15.8648 20.6241C16.6377 20.5359 17.6762 19.9866 18.2147 19.452ZM3.28979 24.91C3.44075 24.8397 3.89267 24.6542 3.96731 24.5584C3.94148 24.3658 3.64706 22.8001 3.58313 22.7042L3.43753 22.6215C3.19978 23.0107 2.4563 24.6758 2.99858 24.9669C3.14109 24.9549 3.14943 24.9584 3.28979 24.91ZM6.66124 11.9727C6.54683 10.8733 5.91716 9.13978 4.61758 8.94485C4.93105 9.44143 6.32277 11.7513 6.66124 11.9727ZM24.0002 11.0727C24.5453 10.6863 25.0114 9.61844 25.3926 9.02983C25.3401 8.98335 25.3676 8.99492 25.3166 8.98312C24.7333 9.3931 23.6154 10.2186 23.9464 11.0375L24.0002 11.0727Z" fill="white"/>
<path d="M17.0095 1.87988C18.9109 1.932 21.6346 5.53234 22.5874 7.05316C21.6936 7.41077 20.7755 7.75924 19.919 8.19164C20.2109 9.10398 20.3205 10.1242 20.782 10.9755C21.1523 11.6589 21.7489 12.2586 22.2938 12.816L22.2845 13.4956C22.1806 13.4689 22.0771 13.4401 21.9745 13.4092C19.7649 12.7389 17.7943 10.8266 16.7461 8.85945C17.0328 10.5139 17.3712 11.1758 18.4321 12.4951C18.6284 12.7267 18.7795 12.9193 18.9595 13.1632C15.1829 11.1354 13.4358 9.60148 11.797 5.61547C11.2004 6.39958 10.5973 7.17907 9.98783 7.95393C9.50019 7.69484 8.93921 7.33747 8.46027 7.04692C9.9783 5.16187 10.8787 3.71102 12.9071 2.26688C13.7397 2.50421 14.4704 2.77155 15.2769 3.0809C15.8781 2.56769 16.2663 2.17969 17.0095 1.87988Z" fill="#FE0339"/>
<path d="M7.43169 11.8389C8.77936 13.0282 8.66721 13.8938 9.04806 15.4823C9.2345 16.2599 9.68464 17.2708 10.048 17.9973C10.3001 18.5051 10.5915 18.9936 10.9196 19.4586C11.4455 20.2191 12.5086 21.3973 12.5323 22.2496C12.5539 23.0314 12.3402 24.0303 12.2781 24.8334C11.8008 22.9486 10.9935 22.0789 9.53142 20.8074C10.6711 22.9142 11.4632 25.935 10.3409 28.155C10.2739 28.2872 10.0949 28.5901 9.9931 28.6846C9.91226 28.487 9.83881 27.949 9.75428 27.6745C9.58832 27.1356 9.37438 26.6686 9.18747 26.1476C8.86615 26.5196 8.49197 27.2186 8.2947 27.4204C8.2941 26.7918 8.32732 26.0682 8.22827 25.462C8.05029 24.3731 7.35811 22.9136 7.66443 21.8057C8.07302 20.3282 8.85663 19.2947 9.21343 17.7372C8.81698 18.202 8.33792 18.8251 7.92599 19.2466C6.17866 21.034 6.03937 22.225 6.64582 24.5968C4.63895 23.3681 5.16005 21.5864 6.07794 19.8278C5.62364 20.1153 5.20969 20.3914 4.79015 20.7304C4.70669 20.654 4.68348 20.6478 4.58133 20.5934C5.15731 19.7021 5.90436 19.0486 6.51153 18.2309C7.6286 16.7262 7.87361 13.7104 7.45811 11.9437C7.44978 11.9087 7.44097 11.8738 7.43169 11.8389Z" fill="#FE0339"/>
<path d="M23.9163 11.4126C23.9588 11.5623 23.6855 13.0097 23.6651 13.3797C23.4844 16.6575 25.4497 17.2707 27.3842 19.3266C26.5047 19.1658 26.1068 19.067 25.2918 18.7232C25.5678 19.1937 25.9106 19.6133 26.1983 20.0986C27.037 21.5134 26.7479 23.228 26.4425 24.7804C26.2241 24.7079 25.9471 24.637 25.7211 24.5733C26.6473 21.2776 25.6148 19.9518 22.9695 17.8784C23.9166 20.025 25.1563 21.18 24.3632 23.6469C24.1047 24.4508 23.744 25.4044 23.5784 26.2116C23.5472 26.4527 23.5231 26.7036 23.4967 26.9459C23.2733 26.6201 23.0639 26.1798 22.844 25.8193C22.4275 26.3993 22.2981 26.8327 22.1323 27.5208C22.0935 27.6822 22.0709 28.1669 21.9833 28.2478C21.9223 28.2423 21.8634 28.2419 21.8023 28.245C21.7794 28.1978 21.7582 28.1498 21.7388 28.1013C21.5834 27.7089 21.3935 26.9746 21.2873 26.5669C20.8319 24.818 21.2514 24.1466 22.0738 22.6253C22.3143 22.1806 22.6255 21.3486 22.859 20.8328C21.367 21.7939 20.6132 22.6724 19.8762 24.198C19.7777 23.3831 19.5801 21.9858 19.7291 21.209C19.7939 20.8721 20.9637 19.5423 21.2237 19.0588C21.7494 18.0811 22.0709 17.0928 22.5519 16.1186C22.9399 17.0076 23.442 17.235 24.2571 17.6871C23.1094 16.2811 22.768 12.8857 23.9163 11.4126Z" fill="#FE0339"/>
<path d="M174.157 32.7385V19.0955H177.407V30.0605H183V32.7385H174.157Z" fill="white"/>
<path d="M163.448 32.7385V19.0955H166.697V30.0605H172.29V32.7385H163.448Z" fill="white"/>
<path d="M161.366 25.9171C161.366 27.4182 161.081 28.6906 160.512 29.7342C159.943 30.7779 159.173 31.5706 158.201 32.1124C157.234 32.6542 156.149 32.9251 154.945 32.9251C153.737 32.9251 152.65 32.652 151.683 32.1058C150.716 31.5595 149.947 30.7668 149.379 29.7276C148.814 28.6839 148.532 27.4138 148.532 25.9171C148.532 24.416 148.814 23.1437 149.379 22.1C149.947 21.0563 150.716 20.2636 151.683 19.7218C152.65 19.18 153.737 18.9091 154.945 18.9091C156.149 18.9091 157.234 19.18 158.201 19.7218C159.173 20.2636 159.943 21.0563 160.512 22.1C161.081 23.1437 161.366 24.416 161.366 25.9171ZM158.044 25.9171C158.044 25.0289 157.919 24.2784 157.67 23.6655C157.425 23.0526 157.07 22.5885 156.606 22.2732C156.147 21.9579 155.593 21.8002 154.945 21.8002C154.302 21.8002 153.748 21.9579 153.285 22.2732C152.821 22.5885 152.464 23.0526 152.214 23.6655C151.969 24.2784 151.847 25.0289 151.847 25.9171C151.847 26.8053 151.969 27.5559 152.214 28.1687C152.464 28.7816 152.821 29.2457 153.285 29.561C153.748 29.8763 154.302 30.034 154.945 30.034C155.593 30.034 156.147 29.8763 156.606 29.561C157.07 29.2457 157.425 28.7816 157.67 28.1687C157.919 27.5559 158.044 26.8053 158.044 25.9171Z" fill="white"/>
<path d="M139.957 32.7385H134.988V19.0955H139.95C141.32 19.0955 142.5 19.3686 143.489 19.9149C144.482 20.4567 145.248 21.2383 145.786 22.2598C146.325 23.2768 146.594 24.4937 146.594 25.9104C146.594 27.3315 146.325 28.5528 145.786 29.5742C145.253 30.5957 144.489 31.3795 143.495 31.9258C142.502 32.4676 141.322 32.7385 139.957 32.7385ZM138.237 29.9273H139.832C140.585 29.9273 141.222 29.7985 141.743 29.5409C142.268 29.2789 142.664 28.8548 142.931 28.2686C143.202 27.6779 143.338 26.8918 143.338 25.9104C143.338 24.9289 143.202 24.1472 142.931 23.5655C142.66 22.9792 142.259 22.5573 141.73 22.2998C141.204 22.0377 140.557 21.9067 139.786 21.9067H138.237V29.9273Z" fill="white"/>
<path d="M118.447 32.9044V19.2615H127.822V21.9394H121.697V24.7373H127.342V27.4219H121.697V30.2265H127.822V32.9044H118.447Z" fill="white"/>
<path d="M116.219 19.2615V32.9044H113.462L108.112 25.0304H108.026V32.9044H104.777V19.2615H107.573L112.865 27.1222H112.976V19.2615H116.219Z" fill="white"/>
<path d="M102.695 26.0829C102.695 27.584 102.41 28.8563 101.841 29.9C101.272 30.9436 100.502 31.7364 99.5305 32.2782C98.5633 32.82 97.478 33.0909 96.2744 33.0909C95.0665 33.0909 93.979 32.8178 93.0118 32.2715C92.0446 31.7253 91.2765 30.9325 90.7076 29.8933C90.143 28.8497 89.8607 27.5795 89.8607 26.0829C89.8607 24.5818 90.143 23.3094 90.7076 22.2658C91.2765 21.2221 92.0446 20.4294 93.0118 19.8876C93.979 19.3458 95.0665 19.0749 96.2744 19.0749C97.478 19.0749 98.5633 19.3458 99.5305 19.8876C100.502 20.4294 101.272 21.2221 101.841 22.2658C102.41 23.3094 102.695 24.5818 102.695 26.0829ZM99.373 26.0829C99.373 25.1947 99.2483 24.4441 98.9988 23.8313C98.7537 23.2184 98.3992 22.7543 97.9353 22.439C97.4758 22.1237 96.9222 21.966 96.2744 21.966C95.6311 21.966 95.0775 22.1237 94.6136 22.439C94.1497 22.7543 93.793 23.2184 93.5435 23.8313C93.2984 24.4441 93.1759 25.1947 93.1759 26.0829C93.1759 26.9711 93.2984 27.7216 93.5435 28.3345C93.793 28.9474 94.1497 29.4115 94.6136 29.7268C95.0775 30.0421 95.6311 30.1998 96.2744 30.1998C96.9222 30.1998 97.4758 30.0421 97.9353 29.7268C98.3992 29.4115 98.7537 28.9474 98.9988 28.3345C99.2483 27.7216 99.373 26.9711 99.373 26.0829Z" fill="white"/>
<path d="M87.9609 24.2043H84.6785C84.6347 23.8623 84.545 23.5537 84.4094 23.2783C84.2737 23.003 84.0942 22.7676 83.871 22.5722C83.6478 22.3768 83.3831 22.228 83.0767 22.1259C82.7747 22.0193 82.4399 21.966 82.0723 21.966C81.4202 21.966 80.8578 22.1281 80.3852 22.4523C79.9169 22.7765 79.5558 23.245 79.302 23.8579C79.0525 24.4708 78.9278 25.2124 78.9278 26.0829C78.9278 26.9889 79.0547 27.7483 79.3086 28.3612C79.5668 28.9696 79.9278 29.4292 80.3917 29.7401C80.86 30.0465 81.4137 30.1998 82.0526 30.1998C82.4115 30.1998 82.7375 30.1531 83.0308 30.0599C83.3284 29.9666 83.5888 29.8312 83.812 29.6535C84.0395 29.4714 84.2255 29.2516 84.37 28.994C84.5188 28.732 84.6216 28.4367 84.6785 28.108L87.9609 28.128C87.904 28.732 87.7311 29.3271 87.4423 29.9133C87.1578 30.4995 86.7661 31.0347 86.2672 31.5188C85.7682 31.9984 85.1599 32.3803 84.4422 32.6646C83.7288 32.9488 82.9104 33.0909 81.987 33.0909C80.7703 33.0909 79.6806 32.82 78.7177 32.2782C77.7593 31.7319 77.0022 30.937 76.4464 29.8933C75.8905 28.8497 75.6126 27.5795 75.6126 26.0829C75.6126 24.5818 75.8949 23.3094 76.4595 22.2658C77.0241 21.2221 77.7877 20.4294 78.7506 19.8876C79.7134 19.3458 80.7922 19.0749 81.987 19.0749C82.801 19.0749 83.5538 19.1903 84.2452 19.4213C84.9367 19.6478 85.545 19.9808 86.0702 20.4205C86.5954 20.8557 87.0221 21.3909 87.3503 22.026C87.6786 22.661 87.8821 23.3872 87.9609 24.2043Z" fill="white"/>
<path d="M73.5323 19.2615V32.9044H70.2828V19.2615H73.5323Z" fill="white"/>
<path d="M59.573 32.9044V19.2615H62.8225V30.2265H68.4156V32.9044H59.573Z" fill="white"/>
<path d="M57.3481 19.2615V32.9044H54.0986V19.2615H57.3481Z" fill="white"/>
<path d="M48.9771 23.3515C48.9333 22.863 48.7385 22.4833 48.3928 22.2124C48.0514 21.937 47.5635 21.7993 46.9289 21.7993C46.5087 21.7993 46.1586 21.8549 45.8785 21.9659C45.5984 22.0769 45.3883 22.2301 45.2483 22.4255C45.1083 22.6165 45.036 22.8363 45.0317 23.085C45.0229 23.2893 45.0623 23.4692 45.1498 23.6246C45.2417 23.7801 45.373 23.9177 45.5437 24.0377C45.7188 24.1531 45.9288 24.2553 46.1739 24.3441C46.419 24.4329 46.6947 24.5106 47.0011 24.5772L48.1565 24.8437C48.8217 24.9903 49.4081 25.1857 49.9158 25.4299C50.4279 25.6742 50.8568 25.9651 51.2025 26.3026C51.5526 26.6401 51.8174 27.0287 51.9968 27.4684C52.1763 27.908 52.2682 28.401 52.2725 28.9473C52.2682 29.8088 52.0537 30.5483 51.6292 31.1656C51.2047 31.7829 50.5942 32.2559 49.7976 32.5845C49.0055 32.9131 48.0492 33.0775 46.9289 33.0775C45.8041 33.0775 44.8238 32.9065 43.9879 32.5645C43.152 32.2226 42.5021 31.7029 42.0382 31.0057C41.5742 30.3085 41.3357 29.4269 41.3226 28.361H44.4343C44.4605 28.8007 44.5765 29.1671 44.7822 29.4602C44.9879 29.7533 45.2702 29.9754 45.6291 30.1264C45.9923 30.2774 46.4124 30.3529 46.8895 30.3529C47.3271 30.3529 47.6991 30.2929 48.0055 30.173C48.3162 30.0531 48.5547 29.8865 48.721 29.6734C48.8873 29.4602 48.9727 29.2159 48.9771 28.9406C48.9727 28.683 48.8939 28.4632 48.7407 28.2811C48.5875 28.0946 48.3512 27.9347 48.0317 27.8015C47.7166 27.6638 47.314 27.5372 46.8238 27.4218L45.419 27.0887C44.2548 26.8178 43.338 26.3803 42.6684 25.7763C41.9988 25.1679 41.6662 24.3463 41.6705 23.3115C41.6662 22.4677 41.8894 21.7283 42.3401 21.0932C42.7909 20.4581 43.4146 19.963 44.2111 19.6077C45.0076 19.2524 45.9157 19.0747 46.9354 19.0747C47.977 19.0747 48.8808 19.2546 49.6467 19.6143C50.4169 19.9696 51.0143 20.4692 51.4388 21.1132C51.8633 21.7572 52.08 22.5033 52.0887 23.3515H48.9771Z" fill="white"/>
</svg>
