<svg xmlns="http://www.w3.org/2000/svg" fill="none" viewBox="20.458 15.421686746987952 152.27700000000002 48.7710843373494" style="max-height: 500px" width="152.27700000000002" height="48.7710843373494">
<rect fill="black" rx="2" height="33.6631" width="45.6948" y="22.9998" x="25.8806"/>
<path fill="white" d="M51.4612 27.2081L57.6393 37.7114H57.8266L64.0047 27.2081H67.4215L59.886 39.8318L67.4215 52.4554H64.0047L57.8266 42.1494H57.6393L51.4612 52.4554H48.0444L55.7672 39.8318L48.0444 27.2081H51.4612Z"/>
<path fill="white" d="M30.0344 52.4554V27.2081H44.497V29.9202H32.9363V38.4511H43.7481V41.1632H32.9363V49.7433H44.6842V52.4554H30.0344Z"/>
<path fill="black" d="M150.768 52.1184V27.543H157.337V46.7425H167.119V52.1184H150.768Z"/>
<path fill="black" d="M131.429 52.1184V27.543H137.998V46.7425H147.78V52.1184H131.429Z"/>
<path fill="black" d="M128.056 39.8318C128.056 42.5677 127.533 44.8757 126.485 46.7556C125.437 48.6276 124.024 50.0475 122.244 51.0155C120.464 51.9755 118.479 52.4554 116.289 52.4554C114.084 52.4554 112.091 51.9715 110.311 51.0035C108.539 50.0275 107.129 48.6036 106.081 46.7316C105.042 44.8517 104.522 42.5517 104.522 39.8318C104.522 37.0959 105.042 34.7919 106.081 32.92C107.129 31.04 108.539 29.6201 110.311 28.6601C112.091 27.6921 114.084 27.2081 116.289 27.2081C118.479 27.2081 120.464 27.6921 122.244 28.6601C124.024 29.6201 125.437 31.04 126.485 32.92C127.533 34.7919 128.056 37.0959 128.056 39.8318ZM121.298 39.8318C121.298 38.3598 121.105 37.1199 120.72 36.1119C120.341 35.0959 119.778 34.3279 119.03 33.808C118.29 33.28 117.376 33.016 116.289 33.016C115.202 33.016 114.285 33.28 113.536 33.808C112.796 34.3279 112.233 35.0959 111.847 36.1119C111.469 37.1199 111.28 38.3598 111.28 39.8318C111.28 41.3037 111.469 42.5477 111.847 43.5637C112.233 44.5717 112.796 45.3396 113.536 45.8676C114.285 46.3876 115.202 46.6476 116.289 46.6476C117.376 46.6476 118.29 46.3876 119.03 45.8676C119.778 45.3396 120.341 44.5717 120.72 43.5637C121.105 42.5477 121.298 41.3037 121.298 39.8318Z"/>
<path fill="black" d="M89.1934 52.1184H79.8835V27.543H89.0989C91.5879 27.543 93.7381 28.035 95.5497 29.019C97.3691 29.995 98.7711 31.4029 99.7557 33.2429C100.748 35.0748 101.244 37.2708 101.244 39.8307C101.244 42.3906 100.752 44.5906 99.7675 46.4305C98.7829 48.2625 97.3888 49.6704 95.5851 50.6544C93.7814 51.6304 91.6509 52.1184 89.1934 52.1184ZM86.4525 46.4545H88.9571C90.1544 46.4545 91.1743 46.2585 92.0171 45.8665C92.8678 45.4745 93.5136 44.7986 93.9547 43.8386C94.4037 42.8786 94.6281 41.5426 94.6281 39.8307C94.6281 38.1187 94.3997 36.7828 93.9429 35.8228C93.4939 34.8628 92.8323 34.1868 91.958 33.7949C91.0916 33.4029 90.0283 33.2069 88.7681 33.2069H86.4525V46.4545Z"/>
</svg>