<svg xmlns="http://www.w3.org/2000/svg" fill="none" viewBox="53.461000000000006 0 80.67399999999999 79.42168674698794" style="max-height: 500px" width="80.67399999999999" height="79.42168674698794">
<rect fill="black" height="68.0029" width="68.0029" y="6" x="60"/>
<path fill="#EB9C62" d="M65.6165 16.0067L65.6235 11.5812L99.7736 11.5831C107.23 11.5803 114.9 11.5075 122.339 11.6214L122.317 15.8703C119.528 15.8728 116.985 16.8323 114.988 18.8173C114.721 19.0826 114.445 19.3303 114.159 19.5752C113.871 19.5958 113.545 19.5866 113.253 19.5856L113.251 17.4508L113.25 16.0733L99.1738 16.0881L99.1361 20.1765L98.4237 20.2871C97.4115 19.2302 96.2135 18.2186 94.9301 17.5116C92.1336 15.947 88.8275 15.5761 85.7559 16.4826C82.19 17.5441 79.9851 19.8094 78.2331 23.0165C76.6843 19.8236 74.1965 17.6028 70.8259 16.499C68.9865 15.8965 67.5063 15.9477 65.6165 16.0067Z"/>
<path fill="#EB9C62" d="M65.5896 38.7714C65.5522 31.7263 65.558 24.6809 65.6071 17.636C67.2815 17.6165 68.8136 17.5509 70.4265 18.0937C78.0658 20.6644 80.0589 29.9863 74.6646 35.7644C71.7696 38.5506 69.3717 38.8331 65.5896 38.7714ZM69.7374 24.4922L69.7444 32.2707C70.1429 31.8937 70.3409 31.706 70.6759 31.2761C72.0127 29.2115 71.8937 25.9145 69.7374 24.4922Z"/>
<path fill="#EB9C62" d="M89.8706 38.4067C84.1815 38.8293 79.2291 34.5425 78.8114 28.8341C78.3938 23.1257 82.6692 18.1591 88.3588 17.7437C94.0433 17.3285 98.9877 21.6136 99.4051 27.3172C99.8224 33.0205 95.5545 37.9844 89.8706 38.4067ZM88.6228 23.8618C86.2012 24.122 84.4508 26.3061 84.7174 28.735C84.9839 31.1638 87.166 32.9134 89.586 32.6386C91.9955 32.365 93.7301 30.1869 93.4647 27.7685C93.1994 25.35 91.0339 23.6029 88.6228 23.8618Z"/>
<path fill="#EB9C62" d="M106.85 17.6861L111.247 17.6722C111.565 17.683 111.463 17.6163 111.631 17.7849C111.697 20.122 111.653 22.694 111.652 25.0451L111.636 38.6946L107.201 38.7084C107.001 38.7185 106.982 38.7438 106.819 38.6397C106.752 37.9851 106.79 36.7669 106.795 36.0785L106.821 31.7183L106.85 17.6861Z"/>
<path fill="#EB9C62" d="M113.096 33.8858C114.378 31.8246 114.355 30.373 113.763 28.1065C113.156 25.7823 113.726 23.1541 115.113 21.1846C116.447 19.3023 118.475 18.0323 120.747 17.657C121.287 17.6145 121.816 17.626 122.358 17.6288C122.384 18.9737 122.453 20.8667 122.317 22.1614C122.164 23.0627 121.511 24.2315 121.657 25.1755C121.922 26.8876 122.401 27.5841 122.281 29.4107C122.144 31.5044 122.033 33.0732 120.76 34.8444C119.26 36.9331 117.518 38.0542 115.025 38.5236C114.295 38.6105 113.915 38.6243 113.164 38.6297C113.154 37.0484 113.131 35.4669 113.096 33.8858Z"/>
<path fill="#EB9C62" d="M100.64 38.6969C100.526 31.7691 100.594 24.6326 100.594 17.69C102.2 17.6871 103.806 17.6955 105.412 17.7151L105.427 38.6917C104.08 38.7606 102.038 38.6976 100.64 38.6969Z"/>
<path fill="#FF710A" d="M91.1793 62.2841C91.1183 60.6159 91.098 58.747 91.1828 57.0779C91.2326 56.0983 91.821 55.1352 91.7443 54.0609C91.6562 52.8287 91.2365 51.7677 91.0329 50.5582C90.3037 45.3922 93.1218 41.101 98.3332 40.2662C98.5479 40.234 99.03 40.2386 99.2671 40.2339C99.2586 40.9587 99.3463 43.6208 99.2309 44.1362C98.9244 45.5048 98.3079 45.9519 98.4038 47.7231C98.4962 49.4344 99.0523 50.4901 99.3722 52.0821C99.7804 54.1123 99.1799 56.8051 97.9894 58.4979C96.5793 60.503 94.6886 61.7015 92.3057 62.1674C91.9301 62.2238 91.5576 62.2511 91.1793 62.2841Z"/>
<path fill="#FF710A" d="M74.4982 62.0112C62.5728 59.0269 63.2764 42.306 75.3363 40.4247C76.0026 40.3207 76.9021 40.3554 77.5906 40.3514L78.1868 40.3507C78.1516 42.4935 78.1755 44.657 78.146 46.8068C74.6074 45.0423 70.4253 48.5263 71.5898 52.3291C72.5792 55.5606 75.1082 56.4286 78.1508 55.563L78.153 62.2714C76.7545 62.2891 75.8741 62.2926 74.4982 62.0112Z"/>
<path fill="#FF710A" d="M100.715 64.3686C100.621 61.2008 100.666 57.8657 100.667 54.6829L100.701 40.2803L105.421 40.3204L105.441 56.8931L105.451 61.6662C105.453 62.4353 105.484 63.6303 105.416 64.3668L100.715 64.3686Z"/>
<path fill="#FF710A" d="M79.5444 62.2548C79.4855 58.6333 79.5393 54.8802 79.5226 51.2464L79.5111 47.1538C79.5123 46.2981 79.4895 45.4505 79.5879 44.5987C79.8529 42.3024 81.6244 40.839 83.805 40.4095C84.0038 40.3891 84.2033 40.3773 84.4032 40.3737C87.9758 40.3359 89.7985 42.9014 89.7303 46.2745C89.7016 47.6947 89.7372 49.2049 89.739 50.6317L89.7628 62.266L85.3167 62.2597C85.2926 61.2257 85.4771 56.9493 85.2494 56.2456C85.083 55.946 84.9786 55.8487 84.6902 55.6898C83.6707 55.6669 83.8784 58.0317 83.8795 58.7338L83.8865 62.2619L79.5444 62.2548ZM84.5401 44.4952C83.962 45.0556 83.8878 45.5751 83.8873 46.3862C83.886 48.1406 83.9099 49.9041 83.9264 51.6587L84.9221 51.9461L85.2287 52.0178C85.4481 51.7555 85.3158 47.1549 85.3417 46.4475C85.3672 45.7487 85.4724 44.6122 84.5401 44.4952Z"/>
<path fill="#FF710A" d="M106.842 62.2641C106.697 59.7923 106.796 56.5548 106.807 54.0105C106.836 49.465 106.834 44.9192 106.8 40.3738C108.407 40.3665 110.014 40.3711 111.621 40.3873C111.568 47.6594 111.729 54.9889 111.578 62.2557L106.842 62.2641Z"/>
<path fill="#FF710A" d="M122.401 62.1331C110.883 61.5081 109.361 44.6032 120.084 41.4202C120.453 41.3106 120.942 41.2715 121.329 41.2324C121.484 41.2027 122.262 41.1731 122.461 41.1624L122.45 46.9796C120.177 47.1341 119.469 47.6285 118.627 49.7781C120.377 49.2281 120.242 48.8381 122.403 48.8053L122.404 54.0734C120.851 53.9351 120.002 53.7977 118.59 53.1479C119.253 55.2421 120.367 55.7676 122.426 55.9081L122.412 61.0637L122.401 62.1331Z"/>
<path fill="#FF710A" d="M76.3834 54.1355C75.7859 54.1383 75.4175 54.1181 74.8531 53.8457C74.0957 53.4708 73.5255 52.7995 73.2767 51.9897C73.0296 51.2289 73.0988 50.4002 73.4687 49.6912C73.9148 48.8417 74.5769 48.4451 75.448 48.1637C76.8265 47.9945 78.1879 48.631 78.4568 50.045C78.8284 51.9995 78.4467 53.6066 76.3834 54.1355Z"/>
<path fill="#FF710A" d="M65.5542 68.4144C65.5407 64.8859 65.5224 60.8814 65.6325 57.3595C65.9231 57.624 66.2959 58.3326 66.5626 58.6724C68.3995 61.02 71.0524 62.9464 74.0113 63.5227C76.1791 63.9448 78.5098 63.8487 80.7218 63.8493L88.4898 63.8546L122.401 63.8777C122.432 65.4001 122.439 66.9228 122.423 68.4454L65.5542 68.4144Z"/>
</svg>