<?xml version="1.0" encoding="iso-8859-1"?>
<!-- Uploaded to: SVG Repo, www.svgrepo.com, Generator: SVG Repo Mixer Tools -->
<svg fill="#fff" height="800px" width="800px" version="1.1" id="Layer_1" xmlns="http://www.w3.org/2000/svg" xmlns:xlink="http://www.w3.org/1999/xlink" 
	 viewBox="0 0 512 512" xml:space="preserve">
<g>
	<g>
		<path d="M350.814,56.286C332.37,22.44,296.546,0,255.997,0c-39.859,0-76.045,21.842-94.817,56.286
			C96.098,48.96,41.991,109.671,59.42,174.963c1.542,5.779,6.058,10.292,11.838,11.832c33.568,8.945,68.081-1.006,91.429-24.355
			c3.735,6.391,8.15,12.39,13.178,17.935l-84.196,68.84c-14.132,11.515-17.132,32.329-6.836,47.375
			c10.442,15.28,30.47,19.936,46.588,10.854l24.871-14.027c-2.382,11.819-14.315,71.023-16.716,82.935
			c-2.084,10.34,5.833,20.005,16.375,20.005h12.612l5.976,80.751c3.439,46.514,72.291,46.531,75.731,0.001l5.729-77.411l5.729,77.41
			c3.44,46.528,72.292,46.519,75.731,0.001l5.976-80.752h12.612c10.548,0,18.457-9.672,16.375-20.005
			c-2.401-11.913-14.334-71.117-16.716-82.935l24.876,14.031c16.115,9.083,36.136,4.419,46.575-10.847
			c10.304-15.056,7.305-35.87-6.805-47.368l-84.218-68.859c5.029-5.546,9.444-11.545,13.178-17.934
			c23.339,23.343,57.851,33.303,91.429,24.354c5.78-1.54,10.296-6.054,11.838-11.832C470.042,109.525,415.744,48.98,350.814,56.286z
			 M149.358,125.103c-11.88,21.504-35.286,33.604-59.49,31.225c-3.579-35.93,24.862-66.617,59.777-67.208
			C147.595,100.75,147.433,113.024,149.358,125.103z M164.858,250.227l-49.845,28.114c-0.886,0.499-2.026,0.235-2.603-0.609
			c-0.572-0.836-0.414-1.986,0.382-2.634l55.883-45.69L164.858,250.227z M399.223,275.116c0.774,0.63,0.932,1.78,0.361,2.616
			c-0.002,0.003-0.004,0.007-0.007,0.01c-0.571,0.836-1.712,1.097-2.59,0.604l-49.851-28.118l-3.818-20.82L399.223,275.116z
			 M328.067,88.774c-25.379-6.763-45.932-26.703-52.857-52.801C300.22,42.73,321.055,62.406,328.067,88.774z M236.782,35.973
			c-6.898,25.998-27.384,46.014-52.857,52.801C190.99,62.218,211.996,42.656,236.782,35.973z M255.996,74.473
			c15.875,25.017,42.03,43.341,73.027,48.65c-0.058,0.283-0.1,0.57-0.163,0.852c-7.312,33.557-37.251,58.589-72.864,58.589
			c-34.797,0-65.381-24.244-72.868-58.603c-0.06-0.277-0.102-0.559-0.159-0.837C214.026,117.805,240.149,99.445,255.996,74.473z
			 M320.48,287.749h-39.515c-9.225,0-16.705,7.479-16.705,16.705c0,4.557-3.707,8.264-8.263,8.264c-4.556,0-8.263-3.707-8.263-8.264
			c0-9.225-7.479-16.705-16.705-16.705h-39.515c7.094-35.195,2.365-10.551,15.722-83.397c30.748,15.568,67.11,15.403,97.521,0
			C318.487,279.226,313.689,254.057,320.48,287.749z M216.95,474.643c-0.414,5.596-8.683,5.575-9.095-0.001l-5.793-78.287h20.68
			L216.95,474.643z M304.137,474.643c-0.412,5.574-8.681,5.598-9.095-0.001l-5.793-78.287h20.68L304.137,474.643z M176.357,362.947
			l8.422-41.789h33.039c6.45,14.687,21.136,24.969,38.178,24.969c17.042,0,31.726-10.282,38.178-24.969h33.039l8.422,41.789
			C331.376,362.947,193.141,362.947,176.357,362.947z M422.124,156.328c-24.193,2.37-47.609-9.723-59.488-31.225
			c1.843-11.534,1.848-23.87-0.287-35.983C397.265,89.714,425.703,120.407,422.124,156.328z"/>
	</g>
</g>
</svg>